<svg width="73" height="73" viewBox="0 0 73 73" fill="none" xmlns="http://www.w3.org/2000/svg">
<g filter="url(#filter0_dd_50_17)">
<rect width="70" height="70" fill="white"/>
</g>
<path d="M8.89062 20.5625H14.1641L21 40.8945L27.8164 20.5625H33.0898L23.1289 49H18.8516L8.89062 20.5625ZM5.84375 20.5625H11.2148L12.2109 41.6367V49H5.84375V20.5625ZM30.7656 20.5625H36.1562V49H29.7695V41.6367L30.7656 20.5625ZM63.793 33.9805V45.4453C63.3242 45.9792 62.6081 46.5521 61.6445 47.1641C60.694 47.776 59.4766 48.3034 57.9922 48.7461C56.5078 49.1758 54.737 49.3906 52.6797 49.3906C50.8177 49.3906 49.125 49.0911 47.6016 48.4922C46.0781 47.8802 44.7695 46.9883 43.6758 45.8164C42.582 44.6315 41.7357 43.1862 41.1367 41.4805C40.5508 39.7747 40.2578 37.8216 40.2578 35.6211V33.9414C40.2578 31.7409 40.5508 29.7878 41.1367 28.082C41.7227 26.3763 42.5495 24.9375 43.6172 23.7656C44.6849 22.5807 45.9544 21.6823 47.4258 21.0703C48.8971 20.4583 50.5247 20.1523 52.3086 20.1523C54.8477 20.1523 56.9245 20.5625 58.5391 21.3828C60.1536 22.1901 61.3776 23.3099 62.2109 24.7422C63.0573 26.1745 63.5781 27.8216 63.7734 29.6836H57.6406C57.5104 28.7331 57.25 27.9128 56.8594 27.2227C56.4818 26.5326 55.9414 26.0052 55.2383 25.6406C54.5352 25.263 53.6237 25.0742 52.5039 25.0742C51.6055 25.0742 50.7917 25.263 50.0625 25.6406C49.3464 26.0052 48.7409 26.5586 48.2461 27.3008C47.7513 28.043 47.3737 28.9674 47.1133 30.0742C46.8529 31.168 46.7227 32.444 46.7227 33.9023V35.6211C46.7227 37.0794 46.8529 38.362 47.1133 39.4688C47.3867 40.5755 47.7839 41.5 48.3047 42.2422C48.8255 42.9714 49.4831 43.5247 50.2773 43.9023C51.0846 44.2799 52.0221 44.4688 53.0898 44.4688C53.9232 44.4688 54.6263 44.4036 55.1992 44.2734C55.7721 44.1302 56.2409 43.9544 56.6055 43.7461C56.9701 43.5247 57.2435 43.3229 57.4258 43.1406V38.4141H52.3672V33.9805H63.793Z" fill="black"/>
<defs>
<filter id="filter0_dd_50_17" x="0" y="0" width="73" height="73" filterUnits="userSpaceOnUse" color-interpolation-filters="sRGB">
<feFlood flood-opacity="0" result="BackgroundImageFix"/>
<feColorMatrix in="SourceAlpha" type="matrix" values="0 0 0 0 0 0 0 0 0 0 0 0 0 0 0 0 0 0 127 0" result="hardAlpha"/>
<feMorphology radius="1" operator="dilate" in="SourceAlpha" result="effect1_dropShadow_50_17"/>
<feOffset dx="2" dy="2"/>
<feComposite in2="hardAlpha" operator="out"/>
<feColorMatrix type="matrix" values="0 0 0 0 1 0 0 0 0 1 0 0 0 0 1 0 0 0 1 0"/>
<feBlend mode="normal" in2="BackgroundImageFix" result="effect1_dropShadow_50_17"/>
<feColorMatrix in="SourceAlpha" type="matrix" values="0 0 0 0 0 0 0 0 0 0 0 0 0 0 0 0 0 0 127 0" result="hardAlpha"/>
<feOffset dx="1" dy="1"/>
<feComposite in2="hardAlpha" operator="out"/>
<feColorMatrix type="matrix" values="0 0 0 0 0 0 0 0 0 0 0 0 0 0 0 0 0 0 1 0"/>
<feBlend mode="normal" in2="effect1_dropShadow_50_17" result="effect2_dropShadow_50_17"/>
<feBlend mode="normal" in="SourceGraphic" in2="effect2_dropShadow_50_17" result="shape"/>
</filter>
</defs>
</svg>
