<svg width="50" height="50" viewBox="0 0 50 50" fill="none" xmlns="http://www.w3.org/2000/svg">
<rect width="50" height="50" rx="5" fill="#D87D48" fill-opacity="0.1"/>
<path fill-rule="evenodd" clip-rule="evenodd" d="M33.0037 17.0413C31.9642 15.9949 30.7273 15.1652 29.3648 14.6002C28.0023 14.0353 26.5412 13.7463 25.0662 13.75C18.8813 13.75 13.8463 18.7838 13.8438 24.9713C13.8438 26.9488 14.36 28.8788 15.3412 30.5813L13.75 36.395L19.6987 34.8338C21.3442 35.7295 23.1877 36.1992 25.0612 36.2H25.0662C31.25 36.2 36.285 31.1663 36.2875 24.9788C36.2917 23.5044 36.0037 22.0438 35.4401 20.6814C34.8765 19.3189 34.0484 18.0818 33.0037 17.0413V17.0413ZM25.0662 34.3063H25.0625C23.3919 34.3065 21.752 33.857 20.315 33.005L19.975 32.8025L16.445 33.7288L17.3862 30.2875L17.165 29.935C16.231 28.4481 15.7365 26.7273 15.7387 24.9713C15.7412 19.8288 19.925 15.645 25.07 15.645C26.2953 15.6423 27.509 15.8826 28.6408 16.3521C29.7726 16.8216 30.8001 17.5108 31.6637 18.38C32.532 19.2451 33.2202 20.2737 33.6886 21.4063C34.157 22.5389 34.3962 23.7531 34.3925 24.9788C34.39 30.1213 30.2062 34.3063 25.0662 34.3063ZM30.1825 27.32C29.9012 27.1788 28.5237 26.5013 28.2662 26.4075C28.01 26.3138 27.8237 26.2675 27.6362 26.5475C27.4487 26.8275 26.9112 27.4588 26.7475 27.6463C26.5837 27.8338 26.42 27.8563 26.14 27.7163C25.86 27.5763 24.9562 27.28 23.885 26.325C23.0512 25.5813 22.4887 24.6638 22.325 24.3825C22.1612 24.1013 22.3075 23.95 22.4487 23.81C22.575 23.685 22.7287 23.4825 22.8687 23.3188C23.0087 23.155 23.055 23.0388 23.1487 22.8513C23.2425 22.6638 23.1962 22.5 23.125 22.36C23.055 22.2188 22.4937 20.8388 22.26 20.2775C22.0337 19.7338 21.8025 19.8063 21.63 19.7988C21.4513 19.7915 21.2726 19.7881 21.0937 19.7888C20.9516 19.7924 20.8117 19.8254 20.6828 19.8856C20.554 19.9458 20.439 20.032 20.345 20.1388C20.0875 20.42 19.3637 21.0975 19.3637 22.4775C19.3637 23.8575 20.3687 25.1913 20.5087 25.3788C20.6487 25.5663 22.4862 28.3975 25.2987 29.6125C25.9687 29.9013 26.4912 30.0738 26.8975 30.2038C27.5687 30.4175 28.18 30.3863 28.6637 30.315C29.2025 30.235 30.3225 29.6375 30.5562 28.9825C30.79 28.3275 30.79 27.7663 30.72 27.6488C30.65 27.5313 30.4612 27.46 30.1825 27.32" fill="black"/>
</svg>
